<?xml version="1.0" standalone="no"?>
<!DOCTYPE svg PUBLIC "-//W3C//DTD SVG 20010904//EN"
 "http://www.w3.org/TR/2001/REC-SVG-20010904/DTD/svg10.dtd">
<svg version="1.0" xmlns="http://www.w3.org/2000/svg"
 width="88.000000pt" height="88.000000pt" viewBox="0 0 88.000000 88.000000"
 preserveAspectRatio="xMidYMid meet">
<metadata>
Created by potrace 1.11, written by Peter Selinger 2001-2013
</metadata>
<g transform="translate(0.000000,88.000000) scale(0.100000,-0.100000)"
fill="#000000" stroke="none">
<path d="M294 868 c-4 -7 -7 -33 -5 -59 2 -33 -2 -48 -12 -52 -8 -3 -18 -3
-21 1 -4 3 -22 11 -42 18 -53 18 -139 1 -188 -37 l-26 -20 0 -360 0 -359 406
0 c450 0 419 -5 453 70 20 46 21 172 2 233 -81 253 -114 326 -178 391 -45 44
-103 69 -160 68 -16 0 -42 4 -60 9 -22 7 -38 7 -52 -1 -11 -6 -31 -8 -43 -5
-18 5 -24 14 -26 41 -4 59 -30 92 -48 62z"/>
</g>
</svg>
