<svg version="1" xmlns="http://www.w3.org/2000/svg" width="682.667" height="682.667" viewBox="0 0 512.000000 512.000000"><path d="M233.5.9C154.9 8.8 86.1 49.8 43.1 114.5-8.5 192-13.9 290 28.8 373.4c20 39.2 53.4 75.4 92.2 100 9.9 6.3 35 18.5 47.4 23.1 13.4 4.9 33.2 9.9 50.6 12.6 20.8 3.3 53.2 3.3 74 0 17.4-2.7 37.2-7.7 50.6-12.6 12.4-4.6 37.5-16.8 47.4-23.1 61.7-39.1 103.4-100.4 116.6-171.3C523.2 218 495.4 131.8 433.4 72c-19.1-18.4-37.8-31.8-60.9-43.5C336.2 10 301.2 1.2 261 .5c-10.7-.2-23.1 0-27.5.4zm145.8 54.7c4.3 2.9 7.6 9 7.7 14.3 0 7.8-6.7 15.9-14.7 17.6-6.9 1.4-16.2-3.6-18.9-10.2-6.9-16.5 11-31.5 25.9-21.7zm-90.2 77c40.2 5.6 75.3 24.6 91.7 49.7 7.4 11.3 9.7 18.8 9.7 31.7 0 13.3-2.4 20.8-10.7 33.1-9.1 13.7-23.3 25.1-42.2 33.9-32.4 15.2-70.4 20.3-108.6 14.5-51.3-7.7-90.3-34.4-99.6-68-1.8-6.4-1.8-20.6 0-27 10.1-36.5 55.1-64.4 112.2-69.5 12.3-1.1 33.5-.4 47.5 1.6zM142 149c6.8 2 6.8 2.3-.4 9-8 7.6-14.8 16.4-18.9 24.8-1.7 3.4-3.6 6.1-4.2 5.9-1.7-.6-5.5-6.8-6.6-11.1-3.8-14 7.9-29.3 22.6-29.5 2.2-.1 5.6.4 7.5.9zm253.6 1.8c4.6 2.4 8.5 6.3 11 11.2 2.5 5 2.4 15.3-.3 20.5-2 3.9-5.9 8.2-6.7 7.4-.2-.2-1.7-3.1-3.4-6.4-4.1-8.2-11.1-17.5-18.9-25.1-6.3-6.1-6.4-6.3-4.2-7.5 6.5-3.4 15.9-3.5 22.5-.1zM211.5 305c30 7.1 66.7 6.9 97-.4 5.5-1.4 10.1-2.3 10.3-2.2.1.2.7 4.1 1.4 8.7 1.8 13.3 1.5 54-.6 69.2-5.1 37.6-18.3 70.5-34.7 86.9-8.5 8.5-9.4 8.8-26 8.8-14.5 0-14.6 0-18.5-2.8-20.3-14.9-36.2-51.4-41.9-96.4-1.8-14.8-2.1-47.3-.5-62.2 1.4-12.4 1.6-13 3.8-12.1.9.3 5.3 1.5 9.7 2.5zm-27 36.7c.1 28.1 1 39.4 5.1 58.7.8 3.8 1.2 7.1.9 7.4-.9 1-8.7-5.2-12.6-10.1-17.8-22.4-17.1-57.7 1.6-78.5 2.6-2.9 4.8-5.2 4.8-5.2.1 0 .2 12.5.2 27.7zm155.1-22.5c8.9 10 14.4 25.1 14.4 39.8 0 18.5-7.7 35.8-20.1 45.7-6.1 4.8-6.9 4.5-5.3-2.5 5.3-22.7 7.4-59.3 4.8-83.5-.2-2.6-.1-4.7.5-4.7.5 0 3 2.4 5.7 5.2zM205.2 454c2.2 0 3.4 1.1 6.4 5.7 2 3.2 5.4 7.9 7.5 10.4 2.2 2.6 3.9 5 3.9 5.3 0 .3-11.5.6-25.5.6H172v-2.5c0-6.3 6.2-14 13.9-17.2 4.4-1.9 11.9-3.2 14.6-2.7 1.1.2 3.2.4 4.7.4zm125.9 1.6c8.4 2.6 15.9 11.1 15.9 17.8v2.6h-52.3l2.7-3.3c1.5-1.7 4.8-6.4 7.3-10.2 2.6-3.9 4.9-7.2 5-7.4.7-.9 9-1.8 12.8-1.4 2.2.3 6.1 1.1 8.6 1.9z"/><path d="M200.9 176.7c-7.8 4-11.2 9.3-11.7 18.2-.3 5 0 7.8 1.3 10.4 3.7 7.9 12.8 13.7 21.4 13.7 5.1 0 13.2-4.1 16.8-8.4 7.2-8.8 7-20.5-.5-28.8-7.4-8.2-17.4-10-27.3-5.1zM299.5 175.9c-17.8 8.2-17.8 32.5-.1 40.7 11.1 5.2 23.2 1.1 29.1-9.7 2.4-4.4 2.7-5.9 2.3-11.9-.3-5.7-.9-7.7-3.4-11.2-6.1-8.8-18.5-12.3-27.9-7.9zM208.2 251.3c-1.2 1.3-2.2 3.4-2.2 4.6 0 5 12.4 13.2 26 17.1 10.7 3.1 35.9 3.9 48.4 1.5 15.4-2.8 30-10.3 32.6-16.5 2.4-5.9-3.8-11-8.9-7.3-1.4 1.1-4 2.9-5.6 4.1-1.7 1.3-6.4 3.4-10.5 4.9-6.6 2.3-9.5 2.7-23.6 3.1-23.4.7-34.9-1.8-45.6-9.9-6.1-4.5-7.6-4.8-10.6-1.6z"/></svg>